# AST/ASF file generated using VICON BodyLanguage
# -----------------------------------------------
:version 1.10
:name VICON
:units
  mass 1.0
  length 0.45
  angle deg
:documentation
   .ast/.asf automatically generated from VICON data using
   VICON BodyBuilder and BodyLanguage model FoxedUp or BRILLIANT.MOD
:root
   order TX TY TZ RX RY RZ
   axis XYZ
   position 0 0 0  
   orientation 0 0 0 
:bonedata
  begin
     id 1 
     name lhipjoint
     direction 0.692814 -0.645514 0.321437 
     length 2.38754 
     axis 0 0 0  XYZ
  end
  begin
     id 2 
     name lfemur
     direction 0.34202 -0.939693 0  
     length 6.41921  
     axis 0 0 20  XYZ
    dof rx ry rz
    limits (-160.0 20.0)
           (-70.0 70.0)
           (-60.0 70.0)
  end
  begin
     id 3 
     name ltibia
     direction 0.34202 -0.939693 0   
     length 6.98247   
     axis 0 0 20   XYZ
    dof rx
    limits (-10.0 170.0)
  end
  begin
     id 4 
     name lfoot
     direction 0.0947186 -0.260237 0.960888   
     length 1.83034   
     axis -90 7.62852e-016 20   XYZ
    dof rx rz
    limits (-45.0 90.0)
           (-70.0 20.0)
  end
  begin
     id 5 
     name ltoes
     direction 1.53538e-011 -4.21952e-011 1   
     length 0.920499   
     axis -90 7.62852e-016 20   XYZ
    dof rx
    limits (-90.0 20.0)
  end
  begin
     id 6 
     name rhipjoint
     direction -0.631686 -0.693949 0.345555   
     length 2.2209  
     axis 0 0 0  XYZ 
  end
  begin
     id 7 
     name rfemur
     direction -0.34202 -0.939693 0   
     length 6.49542   
     axis 0 0 -20   XYZ
    dof rx ry rz
    limits (-160.0 20.0)
           (-70.0 70.0)
           (-70.0 60.0)
  end
  begin
     id 8 
     name rtibia
     direction -0.34202 -0.939693 0   
     length 7.21712   
     axis 0 0 -20   XYZ
    dof rx
    limits (-10.0 170.0)
 end
 begin
     id 9 
     name rfoot
     direction -0.0825378 -0.226771 0.970444   
     length 1.89724  
     axis -90 -7.62852e-016 -20   XYZ
    dof rx rz
    limits (-45.0 90.0)
           (-20.0 70.0)
  end
  begin
     id 10 
     name rtoes
     direction -1.53515e-011 -4.22016e-011 1   
     length 0.955868   
     axis -90 -7.62852e-016 -20   XYZ
    dof rx
    limits (-90.0 20.0)
  end
  begin
     id 11 
     name lowerback
     direction -0.0104711 0.984802 -0.173368   
     length 1.84931   
     axis 0 0 0   XYZ
    dof rx ry rz
    limits (-20.0 45.0)
           (-30.0 30.0)
           (-30.0 30.0)
  end
  begin
     id 12 
     name upperback
     direction -0.00286433 0.999996 -0.000382853   
     length 1.85768   
     axis 0 0 0   XYZ
    dof rx ry rz
    limits (-20.0 45.0)
           (-30.0 30.0)
           (-30.0 30.0)
  end
  begin
     id 13 
     name thorax
     direction 0.00167534 0.996793 0.0800069   
     length 1.92   
     axis 0 0 0   XYZ
    dof rx ry rz
    limits (-20.0 45.0)
           (-30.0 30.0)
           (-30.0 30.0)
  end
  begin
     id 14 
     name lowerneck
     direction -0.0672491 0.995415 0.068018   
     length 1.58923   
     axis 0 0 0   XYZ
    dof rx ry rz
    limits (-20.0 45.0)
           (-30.0 30.0)
           (-30.0 30.0)
  end
  begin
     id 15 
     name upperneck
     direction 0.0958019 0.982476 -0.159884   
     length 1.60189   
     axis 0 0 0   XYZ
    dof rx ry rz
    limits (-20.0 45.0)
           (-30.0 30.0)
           (-30.0 30.0)
  end
  begin
     id 16
     name head
     direction 0.032989 0.997338 -0.0650226  
     length 1.61681  
     axis 0 0 0   XYZ
    dof rx ry rz
    limits (-20.0 45.0)
           (-30.0 30.0)
           (-30.0 30.0)
  end
  begin
     id 17 
     name lclavicle
     direction 0.954279 0.298875 -0.00496069  
     length 2.99449  
     axis 0 0 0   XYZ
    dof ry rz
    limits (-20.0 10.0)
           (0.0 20.0)
  end
  begin
     id 18 
     name lhumerus
     direction 1 -4.48985e-011 -4.2057e-027   
     length 4.79185   
     axis 180 -30 -90   XYZ
    dof rx ry rz
    limits (-60.0 90.0)
           (-90.0 90.0)
           (-90.0 90.0)
  end
  begin
     id 19
     name lradius
     direction 1 -4.48945e-011 1.15441e-028   
     length 2.65553   
     axis 180 -30 -90   XYZ
    dof rx
    limits (-10.0 170.0)
  end
  begin
     id 20
     name lwrist
     direction 1 -4.4899e-011 4.8894e-028   
     length 1.32777   
     axis -2.56392e-016 90 90   XYZ
    dof ry
    limits (-180.0 0.0)
 end
  begin
     id 21 
     name lhand
     direction 1 -4.48908e-011 9.7788e-028   
     length 0.743904   
     axis -6.23971e-016 90 90   XYZ
    dof rx rz
    limits (-90.0 90.0)
           (-45.0 45.0)
  end
  begin
     id 22 
     name lfingers
     direction 1 -4.49068e-011 1.95576e-027   
     length 0.599754   
     axis -1.24794e-015 90 90   XYZ
    dof rx
    limits (0.0 90.0)
  end
  begin
     id 23
     name lthumb
     direction 0.707107 -6.34883e-011 0.707107   
     length 0.861131   
     axis -90 45 2.85299e-015   XYZ
    dof rx rz
    limits (-45.0 45.0)
           (-45.0 45.0)
  end
  begin
     id 24 
     name rclavicle
     direction -0.957921 0.286916 0.00811568   
     length 3.06817  
     axis 0 0 0   XYZ 
    dof ry rz
    limits (-10.0 20.0)
           (-20.0 0.0)
  end
  begin
     id 25 
     name rhumerus
     direction -1 -4.48971e-011 -3.07942e-027  
     length 4.77254   
     axis 180 30 90   XYZ
    dof rx ry rz
    limits (-90.0 60.0)
           (-90.0 90.0)
           (-90.0 90.0)
  end
  begin
     id 26 
     name rradius
     direction -1 -4.48957e-011 -9.6815e-028   
     length 2.75995   
     axis 180 30 90   XYZ
    dof rx
    limits (-10.0 170.0)
  end
  begin
     id 27 
     name rwrist
     direction -1 -4.48979e-011 4.8894e-028   
     length 1.37997   
     axis -2.56392e-016 -90 -90   XYZ
    dof ry
    limits (-180.0 0.0)
  end
  begin
     id 28
     name rhand
     direction -1 -4.48906e-011 9.7788e-028   
     length 0.701619   
     axis -6.23971e-016 -90 -90   XYZ
    dof rx rz
    limits (-90.0 90.0)
           (-45.0 45.0)
  end
  begin
     id 29
     name rfingers
     direction -1 -4.49018e-011 1.95576e-027   
     length 0.565663   
     axis -1.24794e-015 -90 -90   XYZ
    dof rx
    limits (0.0 90.0)
  end
  begin
     id 30
     name rthumb
     direction -0.707107 -6.34881e-011 0.707107   
     length 0.812183   
     axis -90 -45 -2.85299e-015   XYZ
    dof rx rz
    limits (-45.0 45.0)
           (-45.0 45.0)
  end
:hierarchy
  begin
    root lhipjoint rhipjoint lowerback
    lhipjoint lfemur
    lfemur ltibia
    ltibia lfoot
    lfoot ltoes
    rhipjoint rfemur
    rfemur rtibia
    rtibia rfoot
    rfoot rtoes
    lowerback upperback
    upperback thorax
    thorax lowerneck lclavicle rclavicle
    lowerneck upperneck
    upperneck head
    lclavicle lhumerus
    lhumerus lradius
    lradius lwrist
    lwrist lhand lthumb
    lhand lfingers
    rclavicle rhumerus
    rhumerus rradius
    rradius rwrist
    rwrist rhand rthumb
    rhand rfingers
  end

#!OML:ASF F:\VICON\USERDATA\INSTALL\rory3\rory3.ASF
:FULLY-SPECIFIED
:DEGREES
341
root 0.360157 15.8249 -1.16568 5.74507 0.484822 -0.720838
lowerback 18.5176 0.216978 -0.632774
upperback 3.65825 0.189538 0.356672
thorax -6.42965 0.106218 0.696539
lowerneck -3.09109 -5.31772 -12.3629
upperneck 2.7447 -7.18861 15.1907
head 2.33551 -3.43431 6.40609
rclavicle -1.71452e-015 8.44835e-016
rhumerus -18.5635 16.3566 -82.0424
rradius 83.0883
rwrist 4.74529
rhand 0.0590536 9.06666
rfingers 7.12502
rthumb 25.6469 -19.226
lclavicle -1.71452e-015 8.44835e-016
lhumerus -17.7662 -23.3497 83.7461
lradius 84.8055
lwrist -3.43999
lhand -3.3301 14.0037
lfingers 7.12502
lthumb 22.3971 42.7253
rfemur -21.3067 8.52137 15.2974
rtibia 33.7271
rfoot -13.9852 -11.0749
rtoes -14.3137
lfemur -20.6667 -6.5027 -14.8952
ltibia 30.8525
lfoot -11.6315 3.10406
ltoes -14.6414
342
root 0.363396 15.8191 -1.16346 5.56299 0.48416 -0.726097
lowerback 18.422 0.222604 -0.621882
upperback 3.63355 0.19697 0.322132
thorax -6.40489 0.109378 0.65169
lowerneck -3.2034 -5.33124 -12.3294
upperneck 2.74504 -7.20203 15.2688
head 2.35843 -3.43474 6.42164
rclavicle 1.39149e-015 1.88845e-015
rhumerus -18.7505 16.2849 -82.1537
rradius 83.2642
rwrist 4.83433
rhand 0.321311 9.02326
rfingers 7.12502
rthumb 25.8981 -19.2329
lclavicle 1.39149e-015 1.88845e-015
lhumerus -17.9978 -23.2012 83.8108
lradius 85.0672
lwrist -3.57384
lhand -2.89568 14.1846
lfingers 7.12502
lthumb 22.8141 42.8554
rfemur -21.143 8.4107 15.3276
rtibia 33.808
rfoot -14.0103 -10.9686
rtoes -14.3409
lfemur -20.5546 -6.55582 -14.9261
ltibia 31.0393
lfoot -11.7423 3.12401
ltoes -14.746
343
root 0.365461 15.8113 -1.16286 5.33154 0.458872 -0.830628
lowerback 18.4147 0.232688 -0.526696
upperback 3.61549 0.227273 0.30803
thorax -6.42049 0.122301 0.575363
lowerneck -3.32286 -5.36118 -12.268
upperneck 2.76065 -7.23612 15.2718
head 2.38584 -3.44601 6.40708
rclavicle 3.75206e-015 2.08724e-015
rhumerus -18.9335 16.2045 -82.2606
rradius 83.437
rwrist 4.9084
rhand 0.643378 8.95926
rfingers 7.12502
rthumb 26.2065 -19.2515
lclavicle 3.75206e-015 2.08724e-015
lhumerus -18.2385 -23.0689 83.8836
lradius 85.3271
lwrist -3.64956
lhand -2.58367 14.3944
lfingers 7.12502
lthumb 23.1135 43.028
rfemur -20.9418 8.35776 15.4767
rtibia 33.8934
rfoot -14.0633 -10.8686
rtoes -14.35
lfemur -20.3946 -6.55655 -14.8473
ltibia 31.208
lfoot -11.8501 3.15297
ltoes -14.9479
344
root 0.365789 15.8036 -1.16086 5.04662 0.615743 -0.94776
lowerback 18.447 0.167387 -0.412937
upperback 3.61324 0.166184 0.34141
thorax -6.43921 0.0910026 0.560685
lowerneck -3.38878 -5.38448 -12.3729
upperneck 2.78284 -7.26326 15.3566
head 2.41461 -3.45611 6.4483
rclavicle 3.23025e-016 -3.32964e-015
rhumerus -19.1737 16.2406 -82.3494
rradius 83.6307
rwrist 5.04869
rhand 0.829719 8.84549
rfingers 7.12502
rthumb 26.3849 -19.3386
lclavicle 3.23025e-016 -3.32964e-015
lhumerus -18.4866 -22.888 84.0218
lradius 85.5645
lwrist -3.73416
lhand -2.35603 14.5844
lfingers 7.12502
lthumb 23.3319 43.1904
rfemur -20.6333 8.19138 15.682
rtibia 33.9853
rfoot -14.1644 -10.885
rtoes -14.6559
lfemur -20.201 -6.62786 -14.7431
ltibia 31.3618
lfoot -11.9124 3.10042
ltoes -15.1904
345
root 0.367097 15.7983 -1.15512 4.7364 1.04347 -0.956184
lowerback 18.4328 0.0102367 -0.316941
upperback 3.65462 -0.0184026 0.367054
thorax -6.38469 4.96486e-005 0.576775
lowerneck -3.38421 -5.40758 -12.4385
upperneck 2.68407 -7.2845 15.3963
head 2.39231 -3.46819 6.47135
rclavicle -2.23633e-016 1.54058e-015
rhumerus -19.4057 16.3307 -82.3751
rradius 83.8925
rwrist 5.18027
rhand 1.01252 8.81852
rfingers 7.12502
rthumb 26.5598 -19.3393
lclavicle -2.23633e-016 1.54058e-015
lhumerus -18.7155 -22.7315 84.1522
lradius 85.833
lwrist -3.77694
lhand -2.08438 14.7964
lfingers 7.12502
lthumb 23.5925 43.3691
rfemur -20.2116 7.85529 15.7874
rtibia 34.099
rfoot -14.3608 -10.9584
rtoes -14.6968
lfemur -20.0075 -6.95288 -14.742
ltibia 31.5239
lfoot -11.9554 2.96927
ltoes -14.991
346
root 0.366852 15.7915 -1.15167 4.57039 1.22655 -0.881855
lowerback 18.3328 -0.0465017 -0.367321
upperback 3.63181 -0.10429 0.331706
thorax -6.35438 -0.0408433 0.58748
lowerneck -3.3879 -5.42286 -12.4208
upperneck 2.59594 -7.2978 15.4047
head 2.36898 -3.47553 6.47061
rclavicle -3.08116e-015 -5.96354e-016
rhumerus -19.6621 16.3305 -82.4545
rradius 84.1341
rwrist 5.33533
rhand 1.22524 8.87935
rfingers 7.12502
rthumb 26.7634 -19.2475
lclavicle -3.08116e-015 -5.96354e-016
lhumerus -18.9875 -22.6139 84.238
lradius 86.058
lwrist -3.75974
lhand -1.97533 14.9621
lfingers 7.12502
lthumb 23.6971 43.5214
rfemur -20.0423 7.66026 15.7515
rtibia 34.2529
rfoot -14.5256 -10.9616
rtoes -14.9055
lfemur -19.9265 -7.10819 -14.8298
ltibia 31.6888
lfoot -12.0197 2.87075
ltoes -14.7447
347
root 0.363561 15.7822 -1.15234 4.48621 1.08119 -0.860281
lowerback 18.2027 0.019889 -0.506425
upperback 3.58024 -0.0459262 0.300163
thorax -6.34051 -0.0103013 0.619022
lowerneck -3.47519 -5.44193 -12.4262
upperneck 2.609 -7.31843 15.4412
head 2.39219 -3.4815 6.47957
rclavicle 1.88845e-015 6.65929e-015
rhumerus -19.871 16.3386 -82.5521
rradius 84.3528
rwrist 5.48833
rhand 1.44799 8.88686
rfingers 7.12502
rthumb 26.9766 -19.2072
lclavicle 1.88845e-015 6.65929e-015
lhumerus -19.1982 -22.4598 84.2931
lradius 86.2331
lwrist -3.70944
lhand -1.76273 15.1561
lfingers 7.12502
lthumb 23.9009 43.6887
rfemur -20.0859 7.67312 15.7354
rtibia 34.4377
rfoot -14.618 -10.8046
rtoes -14.7884
lfemur -19.8776 -6.96518 -14.8629
ltibia 31.8521
lfoot -12.0779 2.82757
ltoes -14.7927
348
root 0.362915 15.772 -1.1529 4.3672 0.978181 -0.816555
lowerback 18.101 0.0755286 -0.625128
upperback 3.54111 0.00138194 0.252611
thorax -6.32851 0.014448 0.624617
lowerneck -3.43028 -5.44704 -12.3477
upperneck 2.50826 -7.32346 15.4322
head 2.35286 -3.48656 6.46494
rclavicle 1.83876e-015 9.93923e-016
rhumerus -20.1016 16.3116 -82.6696
rradius 84.5454
rwrist 5.68921
rhand 1.55813 9.01853
rfingers 7.12502
rthumb 27.0819 -19.0591
lclavicle 1.83876e-015 9.93923e-016
lhumerus -19.4843 -22.3267 84.3683
lradius 86.4893
lwrist -3.7003
lhand -1.58973 15.3892
lfingers 7.12502
lthumb 24.0668 43.9
rfemur -20.0863 7.59818 15.7001
rtibia 34.6327
rfoot -14.6558 -10.6697
rtoes -14.9188
lfemur -19.8113 -6.82583 -14.9404
ltibia 32.029
lfoot -12.1605 2.78366
ltoes -14.9721
349
root 0.364049 15.7637 -1.15224 4.16801 0.935185 -0.797397
lowerback 18.0852 0.0864394 -0.685894
upperback 3.53789 0.00189157 0.219882
thorax -6.32344 0.0155166 0.624081
lowerneck -3.44395 -5.44864 -12.3106
upperneck 2.42363 -7.31799 15.4327
head 2.3285 -3.48416 6.45933
rclavicle -2.88238e-015 -6.95746e-016
rhumerus -20.3037 16.3166 -82.7695
rradius 84.7586
rwrist 5.99674
rhand 1.69389 9.14257
rfingers 7.12502
rthumb 27.2118 -18.9148
lclavicle -2.88238e-015 -6.95746e-016
lhumerus -19.8835 -22.0892 84.4659
lradius 86.8968
lwrist -3.72512
lhand -1.47284 15.4753
lfingers 7.12502
lthumb 24.1789 43.9713
rfemur -19.9747 7.50531 15.7031
rtibia 34.8172
rfoot -14.7233 -10.5173
rtoes -15.0372
lfemur -19.6738 -6.78728 -14.9947
ltibia 32.206
lfoot -12.27 2.73349
ltoes -15.1188
350
root 0.365087 15.7573 -1.15237 3.94936 0.966215 -0.849805
lowerback 18.1081 0.0523745 -0.63635
upperback 3.5626 -0.0342045 0.209836
thorax -6.30871 -0.00309102 0.593532
lowerneck -3.6544 -5.46461 -12.3649
upperneck 2.51569 -7.32848 15.4815
head 2.39625 -3.47931 6.47737
rclavicle 5.46658e-016 -2.28602e-015
rhumerus -20.4014 16.3706 -82.8524
rradius 84.9387
rwrist 6.35417
rhand 1.89323 9.16647
rfingers 7.12502
rthumb 27.4025 -18.8609
lclavicle 5.46658e-016 -2.28602e-015
lhumerus -20.1638 -21.8162 84.5413
lradius 87.2266
lwrist -3.79554
lhand -1.34827 15.6244
lfingers 7.12502
lthumb 24.2983 44.1044
rfemur -19.8215 7.39308 15.7918
rtibia 34.9967
rfoot -14.8637 -10.4049
rtoes -15.0592
lfemur -19.5183 -6.81863 -14.9671
ltibia 32.3623
lfoot -12.3605 2.73708
ltoes -15.0746
351
root 0.366387 15.7506 -1.1549 3.76181 1.01376 -0.837498
lowerback 18.125 0.0190466 -0.641683
upperback 3.59452 -0.0814966 0.172571
thorax -6.28288 -0.0263708 0.567683
lowerneck -3.89046 -5.47526 -12.2923
upperneck 2.61211 -7.33101 15.4311
head 2.45957 -3.46999 6.44232
rclavicle 4.47266e-015 -3.18055e-015
rhumerus -20.4749 16.4362 -82.9545
rradius 85.1232
rwrist 6.70632
rhand 1.97009 9.08245
rfingers 7.12502
rthumb 27.476 -18.9333
lclavicle 4.47266e-015 -3.18055e-015
lhumerus -20.3154 -21.5736 84.5656
lradius 87.5025
lwrist -3.91989
lhand -1.09442 16.0369
lfingers 7.12502
lthumb 24.5417 44.4841
rfemur -19.702 7.25909 15.8029
rtibia 35.1674
rfoot -14.9822 -10.3591
rtoes -15.4128
lfemur -19.4073 -6.8281 -15.0114
ltibia 32.5096
lfoot -12.4106 2.69063
ltoes -15.2571
352
root 0.364959 15.7421 -1.15938 3.63443 1.0443 -0.765683
lowerback 18.0877 0.0184458 -0.767942
upperback 3.61593 -0.107514 0.145626
thorax -6.23923 -0.037193 0.61654
lowerneck -4.02237 -5.48827 -12.1987
upperneck 2.66734 -7.34122 15.3287
head 2.49146 -3.47008 6.38961
rclavicle -4.02539e-015 -1.59028e-015
rhumerus -20.5645 16.4651 -83.0264
rradius 85.3632
rwrist 7.02403
rhand 1.98827 8.98327
rfingers 7.12502
rthumb 27.4934 -19.0297
lclavicle -4.02539e-015 -1.59028e-015
lhumerus -20.4718 -21.3134 84.6347
lradius 87.7962
lwrist -4.08029
lhand -0.874868 16.3348
lfingers 7.12502
lthumb 24.7521 44.7533
rfemur -19.6657 7.1625 15.7461
rtibia 35.3309
rfoot -15.1029 -10.292
rtoes -15.1974
lfemur -19.3844 -6.80316 -15.0936
ltibia 32.6727
lfoot -12.4638 2.59159
ltoes -15.2032
